<svg width="478" height="203" viewBox="0 0 478 203" fill="none" xmlns="http://www.w3.org/2000/svg">
<path d="M21.7597 178.339C13.6797 178.339 7.11969 171.669 7.11969 163.452C7.11969 155.236 13.6797 148.565 21.7597 148.565C27.7197 148.565 32.8397 152.185 35.1197 157.391H41.9197C39.3597 148.524 31.2797 142.057 21.7197 142.057C10.0797 142.057 0.679688 151.656 0.679688 163.452C0.679688 175.248 10.1197 184.847 21.7197 184.847C31.2797 184.847 39.3197 178.38 41.9197 169.513H35.1197C32.8797 174.719 27.7597 178.339 21.7597 178.339Z" fill="white"/>
<path d="M115.642 178.338C107.562 178.338 101.002 171.668 101.002 163.451C101.002 155.235 107.562 148.564 115.642 148.564C123.722 148.564 130.282 155.235 130.282 163.451C130.282 171.668 123.722 178.338 115.642 178.338ZM115.642 142.056C104.002 142.056 94.6016 151.655 94.6016 163.451C94.6016 175.288 104.042 184.846 115.642 184.846C127.242 184.846 136.682 175.247 136.682 163.451C136.682 151.614 127.282 142.056 115.642 142.056Z" fill="white"/>
<path d="M240.4 178.339C232.32 178.339 225.76 171.669 225.76 163.452C225.76 155.236 232.32 148.565 240.4 148.565C248.48 148.565 255.04 155.236 255.04 163.452C255.04 171.669 248.48 178.339 240.4 178.339ZM240.4 142.057C228.76 142.057 219.36 151.656 219.36 163.452C219.36 175.289 228.8 184.847 240.4 184.847C252 184.847 261.44 175.248 261.44 163.452C261.44 151.615 252.04 142.057 240.4 142.057Z" fill="white"/>
<path d="M82.5589 147.139C80.9589 145.553 79.1189 144.333 77.0389 143.438C74.9589 142.543 72.7189 142.095 70.3189 142.095C68.1989 142.095 66.3189 142.38 64.7189 142.99C63.1189 143.6 61.7589 144.211 60.6389 144.902C59.3589 145.716 58.2789 146.651 57.3589 147.709V125.825H49.8789V184.398H57.3589V160.196C57.3589 156.657 58.4789 153.851 60.7189 151.736C62.9589 149.62 65.7989 148.563 69.3589 148.563C70.8389 148.563 72.1989 148.848 73.5589 149.417C74.8789 149.987 76.0389 150.759 77.0389 151.776C78.0389 152.793 78.8389 154.013 79.4389 155.437C80.0389 156.861 80.3189 158.447 80.3189 160.196V184.398H87.7989V160.196C87.7989 157.512 87.3189 155.071 86.3989 152.834C85.3989 150.597 84.1589 148.685 82.5589 147.139Z" fill="white"/>
<path d="M159.32 142.829C157.72 143.358 156.36 143.968 155.24 144.66C153.96 145.392 152.88 146.246 151.96 147.182L149.96 142.545H144.48V184.4H151.96V160.686C151.96 157.147 153.08 154.341 155.28 152.226C157.52 150.11 160.4 149.053 163.92 149.053H165.92V142.057H164.92C162.76 142.057 160.92 142.301 159.32 142.829Z" fill="white"/>
<path d="M301.2 169.431C300.48 171.221 299.48 172.726 298.16 173.987C296.88 175.248 295.4 176.224 293.68 176.956C291.96 177.688 290.16 178.014 288.2 178.014C286.24 178.014 284.44 177.648 282.72 176.956C281 176.224 279.52 175.248 278.24 173.987C276.96 172.726 275.96 171.221 275.2 169.431C274.48 167.641 274.12 165.648 274.12 163.452C274.12 161.255 274.48 159.262 275.2 157.472C275.92 155.683 276.92 154.178 278.24 152.917C279.52 151.656 281 150.68 282.72 149.947C284.44 149.215 286.24 148.89 288.2 148.89C290.16 148.89 291.96 149.256 293.68 149.947C295.4 150.68 296.88 151.656 298.16 152.917C299.44 154.178 300.44 155.723 301.2 157.472C301.92 159.262 302.28 161.255 302.28 163.452C302.28 165.648 301.92 167.641 301.2 169.431ZM301.24 147.385C300.32 146.409 299.28 145.554 298 144.741C296.88 144.009 295.48 143.399 293.76 142.829C292.04 142.26 290.04 142.016 287.68 142.016C284.68 142.016 281.88 142.544 279.28 143.561C276.68 144.619 274.4 146.043 272.52 147.954C270.6 149.825 269.08 152.103 268 154.706C266.88 157.35 266.32 160.238 266.32 163.411C266.32 166.584 266.88 169.472 268 172.116C269.12 174.76 270.64 176.997 272.52 178.868C274.44 180.739 276.68 182.203 279.28 183.261C281.88 184.318 284.68 184.806 287.68 184.806C290.04 184.806 292.08 184.481 293.76 183.871C295.48 183.261 296.88 182.61 298 181.878C299.24 181.024 300.32 180.047 301.24 178.949V184.766C301.24 187.938 300.04 190.582 297.68 192.738C295.32 194.894 292.16 195.952 288.2 195.952C284.8 195.952 282.24 195.301 280.48 194.04C278.76 192.779 277.48 191.315 276.72 189.606H268.92C269.4 191.437 270.2 193.104 271.28 194.731C272.36 196.318 273.68 197.701 275.28 198.921C276.88 200.1 278.76 201.077 280.92 201.728C283.08 202.419 285.52 202.744 288.2 202.744C291.32 202.744 294.16 202.297 296.76 201.402C299.32 200.507 301.52 199.246 303.32 197.619C305.12 195.992 306.52 194.08 307.56 191.884C308.56 189.688 309.08 187.328 309.08 184.766V142.463H303.36L301.24 147.385Z" fill="white"/>
<path d="M333.961 142.829C332.361 143.357 331.001 143.967 329.881 144.659C328.601 145.391 327.521 146.245 326.601 147.181L324.601 142.544H319.121V184.399H326.601V160.685C326.601 157.146 327.721 154.34 329.921 152.225C332.161 150.109 335.041 149.052 338.561 149.052H340.561V142.056H339.561C337.401 142.056 335.521 142.3 333.961 142.829Z" fill="white"/>
<path d="M373.76 168.577C373.76 169.756 373.44 170.936 372.76 172.075C372.08 173.214 371.2 174.271 370 175.207C368.84 176.143 367.44 176.915 365.76 177.485C364.08 178.095 362.28 178.38 360.28 178.38C358 178.38 356.2 177.81 354.84 176.671C353.48 175.532 352.8 174.231 352.8 172.807C352.8 171.628 353.04 170.611 353.56 169.675C354.04 168.78 355.04 168.007 356.56 167.357C358.04 166.706 360.16 166.218 362.88 165.852C365.6 165.526 369.24 165.323 373.76 165.323V168.577ZM376.48 146.327C375 145.026 373.2 143.968 371.08 143.195C369 142.422 366.72 142.016 364.24 142.016C361.72 142.016 359.48 142.341 357.52 142.992C355.56 143.643 353.88 144.538 352.44 145.676C351 146.815 349.88 148.158 349 149.663C348.12 151.168 347.56 152.795 347.32 154.544H355.28C355.8 152.673 356.76 151.208 358.08 150.11C359.4 149.012 361.48 148.483 364.28 148.483C367.08 148.483 369.36 149.256 371.12 150.842C372.88 152.429 373.76 154.259 373.76 156.374V158.693C368.16 158.693 363.52 159.018 359.84 159.669C356.16 160.32 353.24 161.255 351.12 162.475C349 163.696 347.48 165.119 346.64 166.746C345.76 168.373 345.36 170.204 345.36 172.197C345.36 173.946 345.72 175.573 346.44 177.078C347.16 178.583 348.2 179.925 349.48 181.064C350.76 182.203 352.32 183.098 354.16 183.749C356 184.4 358.04 184.725 360.28 184.725C362.52 184.725 364.52 184.481 366.16 183.993C367.84 183.505 369.2 182.895 370.36 182.244C371.64 181.512 372.76 180.617 373.76 179.641L375.76 184.278H381.24V156.374C381.24 154.381 380.84 152.51 380 150.802C379.16 149.134 378 147.629 376.48 146.327Z" fill="white"/>
<path d="M424.44 169.553C423.68 171.383 422.68 172.929 421.4 174.271C420.12 175.573 418.64 176.59 416.96 177.281C415.28 178.014 413.48 178.339 411.64 178.339C409.76 178.339 408 177.973 406.32 177.281C404.64 176.549 403.16 175.573 401.88 174.271C400.6 172.97 399.6 171.383 398.84 169.553C398.08 167.723 397.68 165.689 397.68 163.452C397.68 161.215 398.08 159.181 398.84 157.35C399.6 155.52 400.6 153.974 401.88 152.632C403.16 151.33 404.64 150.313 406.32 149.622C408 148.89 409.8 148.564 411.64 148.564C413.52 148.564 415.28 148.93 416.96 149.622C418.64 150.354 420.12 151.33 421.4 152.632C422.68 153.934 423.68 155.52 424.44 157.35C425.2 159.181 425.6 161.215 425.6 163.452C425.6 165.689 425.2 167.723 424.44 169.553ZM426.96 148.036C425.08 146.124 422.84 144.66 420.28 143.602C417.72 142.544 415 142.016 412.16 142.016C409.88 142.016 407.92 142.3 406.28 142.788C404.6 143.317 403.24 143.927 402.08 144.619C400.76 145.351 399.64 146.205 398.68 147.141L396.68 142.504H391.2V199.246H398.68V179.234C399.6 180.291 400.72 181.227 402.08 182.04C403.2 182.732 404.6 183.342 406.28 183.952C407.96 184.562 409.92 184.847 412.16 184.847C415 184.847 417.72 184.318 420.28 183.261C422.84 182.203 425.08 180.739 426.96 178.827C428.84 176.915 430.36 174.678 431.44 172.075C432.52 169.472 433.08 166.584 433.08 163.411C433.08 160.238 432.52 157.35 431.44 154.747C430.32 152.185 428.84 149.947 426.96 148.036Z" fill="white"/>
<path d="M475.878 152.836C474.958 150.598 473.678 148.687 472.078 147.1C470.478 145.514 468.638 144.294 466.558 143.358C464.478 142.463 462.238 142.016 459.838 142.016C457.718 142.016 455.838 142.301 454.238 142.911C452.638 143.521 451.278 144.131 450.158 144.822C448.878 145.636 447.798 146.572 446.878 147.629V125.746H439.398V184.4H446.878V160.198C446.878 156.659 447.998 153.852 450.198 151.737C452.438 149.622 455.318 148.565 458.838 148.565C460.318 148.565 461.678 148.849 463.038 149.419C464.358 149.988 465.518 150.761 466.518 151.778C467.518 152.795 468.318 154.015 468.918 155.439C469.518 156.862 469.798 158.449 469.798 160.198V184.4H477.278V160.198C477.278 157.513 476.798 155.073 475.878 152.836Z" fill="white"/>
<path d="M192.118 148.564C199.278 148.564 205.198 153.77 206.478 160.644H177.718C179.038 153.77 184.998 148.564 192.118 148.564ZM210.198 166.705H212.918C213.078 165.648 213.158 164.549 213.158 163.451C213.158 151.614 203.718 142.056 192.118 142.056C180.478 142.056 171.078 151.655 171.078 163.451C171.078 175.288 180.518 184.846 192.118 184.846C200.278 184.846 207.358 180.128 210.838 173.213H203.158C200.478 176.345 196.518 178.338 192.118 178.338C185.158 178.338 179.358 173.376 177.878 166.786H210.238V166.705H210.198Z" fill="white"/>
<path d="M246.156 31.5004C250.116 27.4735 250.116 20.9654 246.156 16.9792C242.196 12.9523 235.796 12.9523 231.876 16.9792C227.916 21.006 227.916 27.5142 231.876 31.5004C235.796 35.5273 242.196 35.5273 246.156 31.5004Z" fill="white"/>
<path d="M260.278 54.0342C262.198 53.6681 264.037 52.7326 265.517 51.1869C269.477 47.16 269.477 40.6519 265.517 36.6657C261.557 32.6388 255.157 32.6388 251.237 36.6657C249.757 38.1707 248.838 40.0418 248.438 41.9942C250.998 43.1331 253.358 44.7601 255.438 46.8753C257.558 49.0311 259.158 51.4716 260.278 54.0342Z" fill="white"/>
<path d="M270.599 56.3918C266.639 60.4186 266.639 66.9268 270.599 70.913C274.559 74.9399 280.959 74.9399 284.879 70.913C288.839 66.8861 288.839 60.378 284.879 56.3918C280.959 52.3649 274.559 52.3649 270.599 56.3918Z" fill="white"/>
<path d="M260.277 73.2725C259.157 75.8757 257.557 78.2756 255.477 80.3907C253.397 82.5058 250.997 84.1329 248.477 85.2718C248.837 87.2242 249.757 89.0953 251.277 90.6003C255.237 94.6272 261.637 94.6272 265.557 90.6003C269.517 86.5734 269.517 80.0653 265.557 76.0791C264.037 74.5741 262.197 73.6385 260.277 73.2725Z" fill="white"/>
<path d="M231.838 95.8053C227.878 99.8322 227.878 106.34 231.838 110.327C235.798 114.353 242.198 114.353 246.118 110.327C250.078 106.3 250.078 99.7915 246.118 95.8053C242.198 91.7784 235.798 91.7784 231.838 95.8053Z" fill="white"/>
<path d="M217.718 73.2725C215.798 73.6385 213.958 74.5741 212.478 76.1198C208.518 80.1467 208.518 86.6548 212.478 90.641C216.438 94.6679 222.838 94.6679 226.758 90.641C228.238 89.136 229.158 87.2649 229.558 85.3125C226.998 84.1736 224.638 82.5465 222.558 80.4314C220.438 78.2756 218.838 75.835 217.718 73.2725Z" fill="white"/>
<path d="M207.398 70.913C211.358 66.8861 211.358 60.378 207.398 56.3918C203.438 52.3649 197.038 52.3649 193.118 56.3918C189.158 60.4186 189.158 66.9268 193.118 70.913C197.038 74.9399 203.438 74.9399 207.398 70.913Z" fill="white"/>
<path d="M206.396 30.4775C209.796 27.02 209.796 21.4475 206.396 17.99C202.996 14.5326 197.516 14.5326 194.116 17.99C190.716 21.4475 190.716 27.02 194.116 30.4775C197.476 33.9349 202.996 33.9349 206.396 30.4775Z" fill="white"/>
<path d="M223.719 10.1423C225.959 7.86442 225.959 4.12226 223.719 1.80374C221.479 -0.51477 217.799 -0.474094 215.519 1.80374C213.239 4.08158 213.279 7.82374 215.519 10.1423C217.799 12.4201 221.439 12.4201 223.719 10.1423Z" fill="white"/>
<path d="M176.758 39.7931C174.518 42.0709 174.518 45.8131 176.758 48.1316C178.998 50.4501 182.678 50.4094 184.958 48.1316C187.198 45.8538 187.198 42.1116 184.958 39.7931C182.678 37.4746 179.038 37.4746 176.758 39.7931Z" fill="white"/>
<path d="M176.758 77.745C174.518 80.0228 174.518 83.765 176.758 86.0835C178.998 88.3613 182.678 88.3613 184.958 86.0835C187.198 83.8057 187.198 80.0635 184.958 77.745C182.678 75.4672 179.038 75.4672 176.758 77.745Z" fill="white"/>
<path d="M215.52 115.734C213.28 118.012 213.28 121.754 215.52 124.073C217.76 126.351 221.44 126.351 223.72 124.073C225.96 121.795 225.96 118.053 223.72 115.734C221.44 113.416 217.8 113.416 215.52 115.734Z" fill="white"/>
<path d="M254.278 115.734C252.038 118.012 252.038 121.754 254.278 124.073C256.518 126.351 260.198 126.351 262.478 124.073C264.718 121.795 264.718 118.053 262.478 115.734C260.198 113.416 256.558 113.416 254.278 115.734Z" fill="white"/>
<path d="M293.039 79.2057C290.799 81.4835 290.799 85.2257 293.039 87.5442C295.279 89.822 298.959 89.822 301.239 87.5442C303.479 85.2664 303.479 81.5242 301.239 79.2057C298.959 76.8872 295.319 76.8872 293.039 79.2057Z" fill="white"/>
<path d="M301.239 51.0249C303.479 48.7471 303.479 45.0049 301.239 42.6864C298.999 40.4086 295.319 40.4086 293.039 42.6864C290.799 44.9642 290.799 48.7064 293.039 51.0249C295.319 53.3028 298.959 53.3028 301.239 51.0249Z" fill="white"/>
<path d="M262.478 10.1423C264.718 7.86442 264.718 4.12226 262.478 1.80374C260.238 -0.51477 256.558 -0.474094 254.278 1.80374C252.038 4.08158 252.038 7.82374 254.278 10.1423C256.558 12.4201 260.198 12.4201 262.478 10.1423Z" fill="white"/>
<path d="M283.92 30.4775C287.32 27.02 287.32 21.4475 283.92 17.99C280.52 14.5326 275.04 14.5326 271.64 17.99C268.24 21.4475 268.24 27.02 271.64 30.4775C275 33.9349 280.52 33.9349 283.92 30.4775Z" fill="white"/>
<path d="M271.597 96.8231C268.197 100.28 268.197 105.853 271.597 109.31C274.997 112.768 280.477 112.768 283.877 109.31C287.277 105.853 287.277 100.28 283.877 96.8231C280.477 93.3656 274.997 93.3656 271.597 96.8231Z" fill="white"/>
<path d="M194.078 96.8221C190.678 100.28 190.678 105.852 194.078 109.31C197.478 112.767 202.958 112.767 206.358 109.31C209.758 105.852 209.758 100.28 206.358 96.8221C202.958 93.3646 197.478 93.3646 194.078 96.8221Z" fill="white"/>
<path d="M229.558 42.0337C229.198 40.0813 228.278 38.2102 226.758 36.7052C222.798 32.6783 216.398 32.6783 212.478 36.7052C208.518 40.7321 208.518 47.2402 212.478 51.2264C213.958 52.7314 215.798 53.667 217.718 54.0737C218.838 51.4705 220.438 49.0706 222.518 46.9555C224.638 44.7997 226.998 43.1727 229.558 42.0337Z" fill="white"/>
</svg>
