<svg width="479" height="111" viewBox="0 0 479 111" fill="none" xmlns="http://www.w3.org/2000/svg">
<path d="M305.823 75.0882C303.231 75.0882 301.122 75.0882 298.838 75.0882C298.838 74.3865 298.838 73.8165 298.838 73.2025C298.838 66.8439 298.881 60.4853 298.794 54.1268C298.75 51.9341 298.662 49.7414 298.223 47.5927C297.432 43.4267 294.18 40.7517 290.403 40.9272C286.624 41.1025 283.197 44.3915 282.67 48.4697C282.45 50.18 282.363 51.9779 282.363 53.6882C282.319 60.2222 282.363 66.7124 282.363 73.2463C282.363 73.8165 282.363 74.4303 282.363 75.0882C280.034 75.0882 277.882 75.0882 275.465 75.0882C275.465 74.0357 275.465 73.0271 275.465 72.0623C275.465 65.0459 275.508 58.0295 275.377 51.0131C275.333 49.0837 274.938 47.0226 274.103 45.3124C271.731 40.3132 266.019 39.4362 262.065 43.339C260.088 45.3124 258.99 47.7242 258.99 50.5308C258.946 58.0295 258.946 65.5284 258.946 73.0271C258.946 73.641 258.946 74.2111 258.946 74.9566C256.661 74.9566 254.509 74.9566 252.224 74.9566C252.224 61.6255 252.224 48.2944 252.224 34.9633C254.509 34.6124 256.574 34.5686 257.936 36.805C258.77 38.1645 259.648 37.9452 260.923 37.1997C262.504 36.2349 264.218 35.3578 265.976 34.8755C269.622 33.9108 273.049 34.5686 276.037 36.9804C277.355 38.0328 278.629 39.173 280.034 40.357C280.869 39.6555 281.748 38.9976 282.539 38.296C290.359 31.1042 303.538 33.8231 305.165 46.9787C306.307 56.2316 305.648 65.6161 305.823 75.0882Z" fill="white"/>
<path d="M320.805 71.404C320.805 73.2019 320.805 74.6053 320.805 76.0085C320.805 80.043 320.761 84.1212 320.805 88.1556C320.805 89.3835 320.409 89.7782 319.18 89.7344C317.422 89.6466 315.664 89.6904 313.775 89.6904C313.775 71.4479 313.775 53.3369 313.775 35.2257C317.071 34.1294 319.443 35.1819 320.761 38.5586C321.552 38.1201 322.079 37.8131 322.65 37.5061C335.567 30.0512 350.153 37.6816 351.558 52.5036C352.261 59.827 350.46 66.2295 344.881 71.2286C338.95 76.5348 331.086 77.2364 324.144 73.3336C323.133 72.8073 322.167 72.1934 320.805 71.404ZM344.968 54.4769C344.705 53.3369 344.529 51.4074 343.87 49.6532C342.2 44.9172 338.861 41.8036 333.853 40.9704C329.416 40.1811 325.813 42.1545 323.001 45.4872C318.125 51.2319 318.52 60.4409 323.792 65.9225C328.229 70.5269 334.731 70.9216 339.652 66.8872C343.343 63.8615 344.705 59.7831 344.968 54.4769Z" fill="white"/>
<path d="M477.869 58.4238C466.401 58.4238 455.023 58.4238 443.424 58.4238C443.6 59.0377 443.644 59.4324 443.775 59.827C446.324 66.3172 453.002 70.6148 459.197 69.2991C461.656 68.7729 464.116 67.5889 466.181 66.1418C469.213 63.993 472.376 64.5631 475.715 64.4754C471.894 72.7635 461.393 77.938 451.464 74.9561C440.832 71.7549 434.593 61.0987 437.098 50.4426C439.47 40.4005 449.048 33.1648 460.251 34.8311C471.981 36.5414 479.23 46.4082 477.869 58.4238ZM443.204 52.3283C452.693 52.3283 462.008 52.3283 471.41 52.3283C469.389 44.6542 463.018 40.7951 457.352 40.7512C450.761 40.7951 444.742 45.6189 443.204 52.3283Z" fill="white"/>
<path d="M356.435 55.179C356.435 43.6896 365.662 34.656 377.392 34.656C388.858 34.656 398.216 43.9528 398.129 55.3105C398.084 66.5368 388.682 75.8335 377.348 75.8335C365.793 75.8335 356.479 66.6245 356.435 55.179ZM377.435 40.7954C369.615 40.7077 362.981 47.1978 362.85 55.179C362.717 62.8531 369.483 69.6065 377.392 69.6503C385.036 69.6942 391.67 62.9848 391.714 55.179C391.802 47.5925 385.123 40.8831 377.435 40.7954Z" fill="white"/>
<path d="M225.688 34.6563C237.462 34.6563 246.425 43.6022 246.38 55.3546C246.38 66.5808 237.242 75.8337 226.215 75.8337C213.87 75.8337 204.864 66.9754 204.864 54.8283C204.908 43.6899 214.222 34.6124 225.688 34.6563ZM225.6 40.7955C217.999 40.7517 211.19 47.5489 211.146 55.1792C211.102 62.8095 217.999 69.6505 225.688 69.6505C233.332 69.6505 240.054 62.941 240.142 55.223C240.23 47.5489 233.421 40.7955 225.6 40.7955Z" fill="white"/>
<path d="M199.898 49.2591C197.833 49.2591 195.901 49.303 194.012 49.2153C193.528 49.1714 193.001 48.6891 192.605 48.2944C191.069 46.7157 189.793 44.9177 188.081 43.5584C183.643 40.0062 178.679 39.8747 173.715 42.2427C168.794 44.6108 166.07 48.6013 165.631 54.1268C164.884 63.5551 174.637 72.4132 185.445 67.8964C187.905 66.8878 190.013 64.6952 191.858 62.6779C193.309 61.0992 194.67 60.2661 196.735 60.6169C197.702 60.7484 198.713 60.6607 199.68 60.6607C199.02 67.9403 189.223 75.5706 180.655 75.6582C169.321 75.7899 160.271 67.9403 159.172 57.1087C158.118 46.4087 165.104 36.9366 175.691 34.744C186.236 32.5513 196.472 38.603 199.898 49.2591Z" fill="white"/>
<path d="M402.697 63.2036C404.675 63.2036 406.52 63.1598 408.365 63.2475C408.805 63.2913 409.288 63.7298 409.639 64.1245C410.561 65.2208 411.308 66.4487 412.319 67.4573C415.087 70.3077 420.403 70.2639 423.258 67.5012C425.807 65.0454 425.236 61.1865 422.029 59.7831C420.139 58.95 418.119 58.4238 416.098 57.8098C414.252 57.2396 412.406 56.8011 410.561 56.1873C401.95 53.2929 402.61 43.3823 406.52 39.0409C410.341 34.8311 415.262 33.9979 420.535 34.8311C426.993 35.8836 430.113 39.2163 431.167 45.6188C431.211 45.9258 431.167 46.2765 431.167 46.759C429.322 46.759 427.52 46.8028 425.719 46.7152C425.367 46.7152 424.972 46.3205 424.708 45.9697C424.181 45.3118 423.785 44.6102 423.302 43.9525C420.798 40.4003 416.405 39.6988 412.89 42.1983C409.727 44.4787 410.079 48.7324 413.637 50.2234C415.789 51.1004 418.119 51.6704 420.359 52.3721C421.897 52.8544 423.434 53.2053 424.928 53.7754C430.551 55.9679 433.056 61.1425 431.254 66.9311C429.673 72.1056 425.367 75.3946 419.612 75.7893C416.449 76.0085 413.373 75.7016 410.43 74.4298C405.685 72.3249 403.577 68.3344 402.697 63.2036Z" fill="white"/>
<path d="M55.2248 0.407438C61.8148 0.495142 66.6475 5.49432 66.5157 12.116C66.4279 18.4308 61.5072 23.2545 55.2687 23.1668C48.3711 23.0353 43.6262 18.2554 43.7141 11.5898C43.8459 5.09965 48.8104 0.319733 55.2248 0.407438Z" fill="white"/>
<path d="M66.5159 98.8119C66.6037 104.732 62.1224 110.082 55.4885 110.214C48.459 110.345 43.5385 105.039 43.6703 98.5926C43.802 92.234 48.7227 87.3665 55.2249 87.4103C61.771 87.4541 66.5598 92.2779 66.5159 98.8119Z" fill="white"/>
<path d="M98.8073 66.6245C92.305 66.5807 87.2965 61.6253 87.2965 55.2229C87.2965 48.8643 92.4368 43.7774 98.8511 43.8213C105.222 43.8651 110.318 48.9958 110.274 55.3544C110.318 61.6693 105.178 66.6684 98.8073 66.6245Z" fill="white"/>
<path d="M11.5107 66.6243C5.05239 66.6681 0 61.7128 0 55.2227C0 49.0833 5.1842 43.8209 11.291 43.8209C17.7492 43.8209 22.9773 48.864 22.9773 55.1349C22.9773 61.5812 18.0128 66.6243 11.5107 66.6243Z" fill="white"/>
<path d="M66.5157 55.1789C66.5157 61.6252 61.5951 66.6244 55.2686 66.6244C48.6786 66.6244 43.7141 61.8007 43.7141 55.3543C43.7141 48.908 48.7225 43.8212 55.1368 43.865C61.5072 43.865 66.5157 48.8642 66.5157 55.1789Z" fill="white"/>
</svg>
