<svg width="506" height="129" viewBox="0 0 506 129" fill="none" xmlns="http://www.w3.org/2000/svg">
<path d="M184.683 15.1874C189.852 15.1874 194.216 16.9844 197.777 20.5786C201.382 24.1289 203.184 28.5996 203.184 33.9908C203.184 39.382 201.404 43.8746 197.843 47.4688C194.281 51.019 189.895 52.7942 184.683 52.7942C179.515 52.7942 175.151 50.9971 171.59 47.403C168.028 43.8089 166.248 39.3381 166.248 33.9908C166.248 28.6434 168.028 24.1727 171.59 20.5786C175.194 16.9844 179.559 15.1874 184.683 15.1874ZM193.934 24.2603C191.415 21.6743 188.332 20.3813 184.683 20.3813C181.035 20.3813 177.952 21.6743 175.433 24.2603C172.958 26.8025 171.72 30.046 171.72 33.9908C171.72 37.9356 172.958 41.201 175.433 43.787C177.952 46.3292 181.035 47.6002 184.683 47.6002C188.375 47.6002 191.458 46.3292 193.934 43.787C196.453 41.201 197.712 37.9356 197.712 33.9908C197.712 30.046 196.453 26.8025 193.934 24.2603Z" fill="white"/>
<path d="M228.39 52.7942C223.135 52.7942 218.727 51.019 215.166 47.4688C211.648 43.8746 209.889 39.382 209.889 33.9908C209.889 28.5996 211.648 24.1289 215.166 20.5786C218.727 16.9844 223.135 15.1874 228.39 15.1874C232.646 15.1874 236.381 16.3927 239.595 18.8034C242.809 21.2141 244.871 24.4576 245.784 28.5338H240.181C239.356 25.9917 237.879 23.9754 235.751 22.4852C233.623 20.995 231.17 20.2498 228.39 20.2498C224.612 20.2498 221.485 21.5428 219.009 24.1289C216.577 26.7149 215.361 30.0022 215.361 33.9908C215.361 37.9794 216.577 41.2667 219.009 43.8527C221.485 46.4387 224.612 47.7317 228.39 47.7317C231.17 47.7317 233.602 46.9866 235.686 45.4964C237.814 44.0061 239.313 41.9899 240.181 39.4477H245.784C244.828 43.5678 242.743 46.8332 239.53 49.2439C236.316 51.6108 232.603 52.7942 228.39 52.7942Z" fill="white"/>
<path d="M270.377 52.7942C265.122 52.7942 260.714 51.019 257.153 47.4688C253.635 43.8746 251.877 39.382 251.877 33.9908C251.877 28.5996 253.635 24.1289 257.153 20.5786C260.714 16.9844 265.122 15.1874 270.377 15.1874C274.634 15.1874 278.368 16.3927 281.582 18.8034C284.796 21.2141 286.859 24.4576 287.771 28.5338H282.169C281.343 25.9917 279.867 23.9754 277.739 22.4852C275.611 20.995 273.157 20.2498 270.377 20.2498C266.599 20.2498 263.472 21.5428 260.997 24.1289C258.565 26.7149 257.349 30.0022 257.349 33.9908C257.349 37.9794 258.565 41.2667 260.997 43.8527C263.472 46.4387 266.599 47.7317 270.377 47.7317C273.157 47.7317 275.589 46.9866 277.674 45.4964C279.802 44.0061 281.3 41.9899 282.169 39.4477H287.771C286.815 43.5678 284.731 46.8332 281.517 49.2439C278.303 51.6108 274.59 52.7942 270.377 52.7942Z" fill="white"/>
<path d="M324.416 15.9106H329.823V52.071H324.416V44.7732C322.983 47.2715 321.072 49.2439 318.684 50.6903C316.339 52.0929 313.646 52.7942 310.606 52.7942C305.742 52.7942 301.725 51.041 298.554 47.5345C295.427 43.9842 293.864 39.4696 293.864 33.9908C293.864 28.5119 295.427 24.0193 298.554 20.5128C301.725 16.9625 305.742 15.1874 310.606 15.1874C313.646 15.1874 316.36 15.9106 318.749 17.357C321.138 18.8034 323.027 20.7977 324.416 23.3399V15.9106ZM311.648 47.6002C315.34 47.6002 318.402 46.3292 320.834 43.787C323.266 41.201 324.482 37.9356 324.482 33.9908C324.482 30.046 323.266 26.8025 320.834 24.2603C318.402 21.6743 315.34 20.3813 311.648 20.3813C308 20.3813 305.025 21.6743 302.724 24.2603C300.465 26.8025 299.336 30.046 299.336 33.9908C299.336 37.9794 300.487 41.2448 302.789 43.787C305.09 46.3292 308.044 47.6002 311.648 47.6002Z" fill="white"/>
<path d="M354.626 52.7942C349.936 52.7942 346.049 51.7423 342.965 49.6384C339.882 47.5345 337.993 44.5759 337.298 40.7626H342.835C343.53 43.2172 344.811 44.9704 346.678 46.0223C348.589 47.0743 351.239 47.6002 354.626 47.6002C357.362 47.6002 359.577 47.14 361.271 46.2196C363.008 45.2553 363.876 43.9185 363.876 42.2091C363.876 41.1571 363.442 40.2805 362.574 39.5792C361.705 38.8341 360.771 38.3081 359.772 38.0013C358.774 37.6945 357.058 37.2343 354.626 36.6206C354.061 36.4891 353.627 36.3796 353.323 36.2919C347.938 34.9331 344.225 33.5963 342.184 32.2814C340.142 30.9665 339.122 28.9064 339.122 26.1012C339.122 22.6824 340.446 20.0088 343.096 18.0802C345.788 16.1516 349.306 15.1874 353.649 15.1874C357.818 15.1874 361.206 16.1078 363.811 17.9487C366.461 19.7458 368.154 22.288 368.893 25.5753H363.42C362.118 22.1126 358.904 20.3813 353.779 20.3813C350.956 20.3813 348.72 20.8854 347.069 21.8935C345.419 22.8578 344.594 24.1289 344.594 25.7068C344.594 27.0655 345.267 28.0736 346.613 28.7311C347.96 29.3447 350.652 30.1775 354.691 31.2294C356.602 31.7116 358.035 32.0841 358.991 32.3471C359.99 32.6101 361.162 32.9827 362.508 33.4648C363.898 33.947 364.919 34.4072 365.57 34.8455C366.222 35.2838 366.895 35.8536 367.59 36.5549C368.285 37.2123 368.762 37.9794 369.023 38.856C369.283 39.6888 369.414 40.6531 369.414 41.7488C369.414 45.2991 368.002 48.0386 365.179 49.9671C362.4 51.8518 358.882 52.7942 354.626 52.7942Z" fill="white"/>
<path d="M376.918 1.05194C377.656 0.350647 378.568 0 379.654 0C380.74 0 381.63 0.350647 382.325 1.05194C383.063 1.75323 383.432 2.60793 383.432 3.61604C383.432 4.66798 383.063 5.5446 382.325 6.24589C381.63 6.94718 380.74 7.29783 379.654 7.29783C378.568 7.29783 377.656 6.94718 376.918 6.24589C376.223 5.5446 375.876 4.66798 375.876 3.61604C375.876 2.60793 376.223 1.75323 376.918 1.05194ZM376.918 52.071V15.9106H382.325V52.071H376.918Z" fill="white"/>
<path d="M408.934 15.1874C414.102 15.1874 418.467 16.9844 422.028 20.5786C425.633 24.1289 427.435 28.5996 427.435 33.9908C427.435 39.382 425.655 43.8746 422.093 47.4688C418.532 51.019 414.146 52.7942 408.934 52.7942C403.766 52.7942 399.402 50.9971 395.84 47.403C392.279 43.8089 390.499 39.3381 390.499 33.9908C390.499 28.6434 392.279 24.1727 395.84 20.5786C399.445 16.9844 403.81 15.1874 408.934 15.1874ZM418.185 24.2603C415.666 21.6743 412.582 20.3813 408.934 20.3813C405.286 20.3813 402.203 21.6743 399.684 24.2603C397.208 26.8025 395.971 30.046 395.971 33.9908C395.971 37.9356 397.208 41.201 399.684 43.787C402.203 46.3292 405.286 47.6002 408.934 47.6002C412.626 47.6002 415.709 46.3292 418.185 43.787C420.704 41.201 421.963 37.9356 421.963 33.9908C421.963 30.046 420.704 26.8025 418.185 24.2603Z" fill="white"/>
<path d="M453.813 15.1874C457.852 15.1874 461.023 16.4146 463.325 18.8692C465.626 21.3237 466.777 24.7425 466.777 29.1256V52.071H461.37V30.1775C461.37 23.6467 458.352 20.3813 452.315 20.3813C448.711 20.3813 445.909 21.5648 443.912 23.9316C441.957 26.2985 440.98 29.4981 440.98 33.5306V52.071H435.573V15.9106H440.98V23.0769C443.586 17.8172 447.864 15.1874 453.813 15.1874Z" fill="white"/>
<path d="M491.212 52.7942C486.522 52.7942 482.635 51.7423 479.551 49.6384C476.468 47.5345 474.579 44.5759 473.884 40.7626H479.421C480.116 43.2172 481.397 44.9704 483.265 46.0223C485.176 47.0743 487.825 47.6002 491.212 47.6002C493.948 47.6002 496.163 47.14 497.857 46.2196C499.594 45.2553 500.463 43.9185 500.463 42.2091C500.463 41.1571 500.028 40.2805 499.16 39.5792C498.291 38.8341 497.358 38.3081 496.359 38.0013C495.36 37.6945 493.644 37.2343 491.212 36.6206C490.648 36.4891 490.213 36.3796 489.909 36.2919C484.524 34.9331 480.811 33.5963 478.77 32.2814C476.729 30.9665 475.708 28.9064 475.708 26.1012C475.708 22.6824 477.033 20.0088 479.682 18.0802C482.374 16.1516 485.892 15.1874 490.235 15.1874C494.404 15.1874 497.792 16.1078 500.398 17.9487C503.047 19.7458 504.741 22.288 505.479 25.5753H500.007C498.704 22.1126 495.49 20.3813 490.365 20.3813C487.543 20.3813 485.306 20.8854 483.656 21.8935C482.005 22.8578 481.18 24.1289 481.18 25.7068C481.18 27.0655 481.853 28.0736 483.2 28.7311C484.546 29.3447 487.238 30.1775 491.277 31.2294C493.188 31.7116 494.621 32.0841 495.577 32.3471C496.576 32.6101 497.748 32.9827 499.095 33.4648C500.484 33.947 501.505 34.4072 502.156 34.8455C502.808 35.2838 503.481 35.8536 504.176 36.5549C504.871 37.2123 505.349 37.9794 505.609 38.856C505.87 39.6888 506 40.6531 506 41.7488C506 45.2991 504.589 48.0386 501.766 49.9671C498.986 51.8518 495.468 52.7942 491.212 52.7942Z" fill="white"/>
<path d="M196.8 75.6798H202.207V111.446C202.207 116.837 200.687 121.11 197.647 124.266C194.607 127.422 190.46 129 185.205 129C180.818 129 177.018 127.86 173.804 125.581C170.591 123.302 168.549 120.102 167.681 115.982H173.283C174.022 118.568 175.433 120.563 177.518 121.965C179.646 123.412 182.165 124.135 185.074 124.135C188.809 124.135 191.697 123.039 193.738 120.847C195.78 118.7 196.8 115.61 196.8 111.577V104.279C195.367 106.778 193.456 108.75 191.068 110.197C188.679 111.599 185.986 112.3 182.99 112.3C178.126 112.3 174.108 110.547 170.938 107.041C167.811 103.49 166.248 99.0197 166.248 93.6286C166.248 88.1935 167.811 83.7228 170.938 80.2163C174.108 76.7099 178.126 74.9566 182.99 74.9566C185.943 74.9566 188.636 75.6798 191.068 77.1263C193.5 78.5727 195.411 80.5451 196.8 83.0434V75.6798ZM184.032 107.107C187.68 107.107 190.72 105.835 193.152 103.293C195.628 100.751 196.865 97.5295 196.865 93.6286C196.865 89.7276 195.628 86.5061 193.152 83.9639C190.72 81.4217 187.68 80.1506 184.032 80.1506C180.427 80.1506 177.474 81.4217 175.172 83.9639C172.871 86.5061 171.72 89.7276 171.72 93.6286C171.72 97.5295 172.871 100.751 175.172 103.293C177.474 105.835 180.427 107.107 184.032 107.107Z" fill="white"/>
<path d="M230.006 74.9566C230.788 74.9566 231.526 75.0005 232.221 75.0881V80.6766C231.44 80.5889 230.68 80.5451 229.941 80.5451C226.076 80.5451 222.993 81.7942 220.691 84.2926C218.389 86.7471 217.238 90.2317 217.238 94.7462V111.84H211.831V75.6798H217.238V83.7666C219.583 77.8933 223.839 74.9566 230.006 74.9566Z" fill="white"/>
<path d="M267.479 75.6798H272.886V111.84H267.479V104.542C266.046 107.041 264.135 109.013 261.746 110.46C259.401 111.862 256.709 112.563 253.669 112.563C248.804 112.563 244.787 110.81 241.617 107.304C238.49 103.753 236.926 99.2389 236.926 93.76C236.926 88.2812 238.49 83.7885 241.617 80.2821C244.787 76.7318 248.804 74.9566 253.669 74.9566C256.709 74.9566 259.423 75.6798 261.812 77.1263C264.2 78.5727 266.089 80.567 267.479 83.1092V75.6798ZM254.711 107.37C258.402 107.37 261.464 106.098 263.896 103.556C266.328 100.97 267.544 97.7048 267.544 93.76C267.544 89.8153 266.328 86.5718 263.896 84.0296C261.464 81.4436 258.402 80.1506 254.711 80.1506C251.063 80.1506 248.088 81.4436 245.786 84.0296C243.528 86.5718 242.399 89.8153 242.399 93.76C242.399 97.7486 243.549 101.014 245.851 103.556C248.153 106.098 251.106 107.37 254.711 107.37Z" fill="white"/>
<path d="M302.053 74.9566C306.917 74.9566 310.913 76.7318 314.04 80.2821C317.21 83.7885 318.795 88.2812 318.795 93.76C318.795 99.2389 317.21 103.753 314.04 107.304C310.869 110.81 306.852 112.563 301.988 112.563C298.948 112.563 296.234 111.862 293.845 110.46C291.5 109.013 289.632 107.041 288.243 104.542V128.277H282.836V75.6798H288.243V83.1092C289.632 80.567 291.522 78.5727 293.91 77.1263C296.299 75.6798 299.013 74.9566 302.053 74.9566ZM301.011 107.37C304.616 107.37 307.569 106.098 309.871 103.556C312.172 101.014 313.323 97.7486 313.323 93.76C313.323 89.8153 312.172 86.5718 309.871 84.0296C307.569 81.4436 304.616 80.1506 301.011 80.1506C297.319 80.1506 294.258 81.4436 291.826 84.0296C289.394 86.5718 288.178 89.8153 288.178 93.76C288.178 97.7048 289.394 100.97 291.826 103.556C294.258 106.098 297.319 107.37 301.011 107.37Z" fill="white"/>
<path d="M345.545 74.9566C349.627 74.9566 352.797 76.1839 355.056 78.6384C357.357 81.0929 358.508 84.5117 358.508 88.8948V111.84H353.101V89.9468C353.101 83.416 350.083 80.1506 344.046 80.1506C340.442 80.1506 337.64 81.334 335.643 83.7009C333.688 86.0677 332.711 89.2674 332.711 93.2998V111.84H327.304V61.2157H332.711V82.7147C335.36 77.5427 339.638 74.9566 345.545 74.9566Z" fill="white"/>
<path d="M25.1693 66.2662C25.1693 73.2807 19.535 78.9672 12.5847 78.9672C5.63434 78.9672 0 73.2807 0 66.2662C0 59.2516 5.63434 53.5652 12.5847 53.5652C19.535 53.5652 25.1693 59.2516 25.1693 66.2662Z" fill="white"/>
<path d="M68.1052 21.4392C68.1052 28.4538 62.4708 34.1402 55.5205 34.1402C48.5702 34.1402 42.9359 28.4538 42.9359 21.4392C42.9359 14.4247 48.5702 8.73827 55.5205 8.73827C62.4708 8.73827 68.1052 14.4247 68.1052 21.4392Z" fill="white"/>
<path d="M68.1052 66.2662C68.1052 73.2807 62.4708 78.9672 55.5205 78.9672C48.5702 78.9672 42.9359 73.2807 42.9359 66.2662C42.9359 59.2516 48.5702 53.5652 55.5205 53.5652C62.4708 53.5652 68.1052 59.2516 68.1052 66.2662Z" fill="white"/>
<path d="M112.522 21.4392C112.522 28.4538 106.887 34.1402 99.9369 34.1402C92.9866 34.1402 87.3523 28.4538 87.3523 21.4392C87.3523 14.4247 92.9866 8.73827 99.9369 8.73827C106.887 8.73827 112.522 14.4247 112.522 21.4392Z" fill="white"/>
<path d="M25.1693 112.587C25.1693 119.602 19.535 125.288 12.5847 125.288C5.63434 125.288 0 119.602 0 112.587C0 105.573 5.63434 99.8864 12.5847 99.8864C19.535 99.8864 25.1693 105.573 25.1693 112.587Z" fill="white"/>
</svg>
