<svg width="390" height="154" viewBox="0 0 390 154" fill="none" xmlns="http://www.w3.org/2000/svg">
<path d="M250.734 57.4902C253.376 57.4902 255.599 57.3513 257.753 57.5596C258.448 57.629 259.282 58.7399 259.63 59.5731C263.382 68.9462 266.996 78.3194 270.68 87.6232C271.027 88.5257 271.374 89.359 272.069 90.8864C272.695 89.4979 273.181 88.5952 273.529 87.762C276.864 79.222 280.2 70.6126 283.535 62.0726C285.968 55.9626 285.412 57.3513 290.763 57.143C291.457 57.143 292.153 57.2125 293.196 57.2819C292.848 58.3927 292.709 59.3648 292.292 60.2674C285.968 76.2365 279.644 92.2057 273.181 108.105C272.209 110.466 270.818 112.757 269.22 114.771C266.51 118.242 262.27 119.353 258.101 117.895C258.101 117.131 258.17 116.229 258.101 115.396C257.822 113.174 258.448 111.855 260.95 111.438C262.062 111.299 263.382 110.466 263.938 109.563C266.44 105.675 268.664 101.995 266.37 96.6491C261.159 84.846 256.711 72.6955 251.985 60.6839C251.638 59.8508 251.29 58.9481 250.734 57.4902Z" fill="white"/>
<path d="M308.205 61.3777C311.264 59.9196 313.973 58.1145 316.893 57.3507C327.455 54.5734 338.018 62.2803 338.505 73.3199C338.922 82.6931 338.575 92.0662 338.575 101.439C338.575 101.578 338.435 101.717 338.297 102.064C336.143 102.064 333.918 102.064 331.138 102.064C331.138 99.0787 331.138 96.1626 331.138 93.2466C331.138 88.1087 331.209 83.0402 331.138 77.9023C331.069 75.75 330.931 73.5281 330.235 71.5146C328.637 66.585 324.467 63.8078 319.533 64.0855C314.182 64.3632 310.013 67.6266 308.97 72.8339C308.484 75.3334 308.414 77.9718 308.345 80.6101C308.276 87.6921 308.345 94.774 308.345 102.273C306.261 102.273 304.314 102.411 302.507 102.203C301.951 102.134 301.048 101.023 301.048 100.398C300.979 86.72 300.979 72.9727 301.048 59.2948C301.048 58.6699 301.882 57.5591 302.299 57.5591C303.759 57.6285 305.356 57.6979 306.468 58.4616C307.442 58.8088 307.719 60.2669 308.205 61.3777Z" fill="white"/>
<path d="M390 73.112C387.706 73.112 385.414 73.4591 383.329 72.9731C382.147 72.6954 381.244 71.0984 380.41 69.9182C374.295 62.1418 363.245 61.5864 356.365 68.6684C349.902 75.2643 350.457 85.679 357.477 91.7888C364.496 97.8988 374.92 96.649 380.687 89.081C383.051 86.0261 385.761 85.3318 389.792 86.7898C385.761 98.1765 374.92 104.356 363.245 102.065C351.917 99.8429 344.203 89.9143 344.899 78.3193C345.523 66.8631 354.419 57.9066 366.164 56.7262C376.17 55.8236 387.637 63.5999 390 73.112Z" fill="white"/>
<path d="M213.972 88.6643C216.266 88.6643 218.281 88.4561 220.157 88.7338C220.921 88.8726 221.617 89.9836 222.172 90.8167C224.814 95.1215 229.748 96.7877 234.265 94.6354C236.697 93.5245 238.086 91.7193 238.086 88.9421C238.086 86.3037 236.419 84.9846 234.265 84.2207C231.832 83.3876 229.261 82.7628 226.76 82.0684C225.231 81.6518 223.771 81.1658 222.312 80.6798C212.444 77.2776 213.555 64.8495 219.254 60.2671C224.814 55.8235 234.265 55.407 239.963 59.6422C243.23 62.0722 244.619 65.6133 245.314 69.4319C241.7 71.2372 238.503 70.4735 236.697 67.349C233.986 62.8361 226.272 62.6972 223.354 67.0713C221.755 69.5014 222.312 72.348 224.883 73.7367C226.551 74.6392 228.427 75.1948 230.234 75.7502C232.457 76.4445 234.751 76.9305 237.045 77.6249C242.117 79.2217 245.453 82.4155 245.939 87.9701C246.426 93.1774 243.507 98.3153 238.643 100.815C232.249 104.147 222.66 102.759 217.724 97.8293C215.293 95.4686 214.32 92.4136 213.972 88.6643Z" fill="white"/>
<path d="M31.9682 137.127C25.8526 137.335 20.8491 132.754 20.5711 126.713C20.2932 120.603 25.0187 115.673 31.3426 115.465C37.1802 115.256 42.1837 119.908 42.4617 125.879C42.7396 131.781 38.014 136.919 31.9682 137.127Z" fill="white"/>
<path d="M127.8 19.0251C133.706 18.6085 138.571 22.9131 138.988 28.8843C139.405 34.9941 135.236 39.9932 129.189 40.5486C123.074 41.0347 117.654 36.5217 117.237 30.4117C116.82 24.3018 121.198 19.5111 127.8 19.0251Z" fill="white"/>
<path d="M31.5512 19.0248C37.2497 18.8165 42.2534 23.5379 42.5312 29.37C42.8092 35.3412 37.8752 40.479 31.6903 40.6873C25.8527 40.8262 20.7797 36.0354 20.6407 30.2033C20.4323 23.9544 25.0884 19.2331 31.5512 19.0248Z" fill="white"/>
<path d="M138.988 126.366C138.988 132.475 134.263 137.196 128.356 137.127C122.241 137.058 117.307 132.267 117.307 126.366C117.307 120.186 122.171 115.465 128.495 115.465C134.402 115.465 138.988 120.256 138.988 126.366Z" fill="white"/>
<path d="M62.9622 7.36073C62.9622 11.5266 59.6959 14.7204 55.5263 14.7204C51.7042 14.651 48.4379 11.1794 48.4379 7.22186C48.4379 3.47259 51.7736 0.0704753 55.5263 0.00104433C59.5569 -0.0683866 62.9622 3.33374 62.9622 7.36073Z" fill="white"/>
<path d="M111.26 7.36063C111.26 11.3876 107.994 14.7203 104.033 14.7203C99.9329 14.7203 96.8753 11.5959 96.8753 7.43006C96.8753 3.33362 100.072 0.000939925 104.033 0.000939925C107.925 0.000939925 111.26 3.40306 111.26 7.36063Z" fill="white"/>
<path d="M7.29766 107.549C3.406 107.549 0.070307 104.286 0.070307 100.468C0.000813195 96.3712 3.26701 93.1774 7.57563 93.1774C11.5368 93.1774 14.942 96.5795 14.8725 100.468C14.8029 104.356 11.3978 107.549 7.29766 107.549Z" fill="white"/>
<path d="M159.629 102.134C159.629 106.161 156.293 109.424 152.331 109.355C148.301 109.355 145.104 106.022 145.104 102.064C145.104 98.107 148.51 94.7742 152.47 94.7742C156.362 94.8436 159.629 98.1764 159.629 102.134Z" fill="white"/>
<path d="M48.438 146.987C48.3685 142.96 51.8432 139.419 55.8044 139.488C59.6961 139.488 62.8928 142.681 62.9622 146.639C63.0317 150.945 60.113 153.93 55.6654 153.999C51.7042 154.068 48.438 150.945 48.438 146.987Z" fill="white"/>
<path d="M104.033 153.86C100.003 153.999 97.0144 151.291 96.8754 147.264C96.7364 143.029 99.5857 139.766 103.616 139.558C107.577 139.349 111.122 142.612 111.261 146.5C111.4 150.805 108.62 153.651 104.033 153.86Z" fill="white"/>
<path d="M7.50637 61.1001C3.47573 61.0307 0.0705388 57.9062 0.00104506 53.9487C-0.0684487 49.9911 3.33674 46.7279 7.57586 46.7973C11.537 46.8667 14.8032 50.0605 14.8032 53.8099C14.8032 57.7674 11.4675 61.1001 7.50637 61.1001Z" fill="white"/>
<path d="M152.262 64.7106C148.301 64.7106 145.104 61.4474 145.104 57.3509C145.104 53.6017 148.439 50.1302 152.193 50.0607C156.153 49.9218 159.698 53.5323 159.629 57.4899C159.558 61.5168 156.293 64.7106 152.262 64.7106Z" fill="white"/>
</svg>
